<svg xmlns="http://www.w3.org/2000/svg" viewBox="0 0 64 64">
  <defs><linearGradient id="g" x1="8" y1="5" x2="55" y2="59"><stop stop-color="#64e3b1"/><stop offset=".55" stop-color="#079667"/><stop offset="1" stop-color="#043d31"/></linearGradient></defs>
  <rect width="64" height="64" rx="17" fill="#041713"/>
  <rect x="7" y="7" width="50" height="50" rx="13" fill="url(#g)"/>
  <path d="M20 24h8v25h-8V31h-5v-6l5-1Zm16 2c0-7 4-11 11-11 2 0 4 .3 5 .8v6.5a10 10 0 0 0-3.3-.6c-3 0-4.5 1.5-4.5 4.6V28H51v6h-6.8v15H36V34h-4v-6h4v-2Z" fill="#041713"/>
</svg>
